[h264 @ 0x56289c2ffd80] Reinit context to 432x240, pix_fmt: yuv420p
Input #0, mov,mp4,m4a,3gp,3g2,mj2, from '/var/www/html/project/media/video/original/video_2022-03-25_11-36-57.mp4':
  Metadata:
    major_brand     : isom
    minor_version   : 512
    compatible_brands: isomiso2avc1mp41
    creation_time   : 2022-03-25T10:35:51.000000Z
  Duration: 00:00:44.19, start: 0.000000, bitrate: 728 kb/s
    Stream #0:0(eng): Video: h264 (High), 1 reference frame (avc1 / 0x31637661), yuv420p(left), 432x238 (432x240), 593 kb/s, 29.42 fps, 29.42 tbr, 90k tbn, 58.83 tbc (default)
    Metadata:
      creation_time   : 2022-03-25T10:35:49.000000Z
      handler_name    : VideoHandle
    Stream #0:1(eng): Audio: aac (LC) (mp4a / 0x6134706D), 48000 Hz, stereo, fltp, 127 kb/s (default)
    Metadata:
      creation_time   : 2022-03-25T10:35:49.000000Z
      handler_name    : SoundHandle
[h264 @ 0x56289c340e00] Reinit context to 1280x720, pix_fmt: yuv420p
Input #1, mov,mp4,m4a,3gp,3g2,mj2, from '/var/www/html/project/static/images/templates/Codino.mp4':
  Metadata:
    major_brand     : mp42
    minor_version   : 1
    compatible_brands: isommp41mp42
    creation_time   : 2021-07-11T07:02:58.000000Z
  Duration: 00:00:02.00, start: 0.000000, bitrate: 1007 kb/s
    Stream #1:0(ita): Audio: aac (LC) (mp4a / 0x6134706D), 44100 Hz, stereo, fltp, 102 kb/s (default)
    Metadata:
      creation_time   : 2021-07-11T07:02:58.000000Z
      handler_name    : Core Media Audio
    Stream #1:1(und): Video: h264 (High), 1 reference frame (avc1 / 0x31637661), yuv420p(tv, bt709, progressive, left), 1280x720 [SAR 1:1 DAR 16:9], 813 kb/s, 25 fps, 25 tbr, 25k tbn, 50k tbc (default)
    Metadata:
      creation_time   : 2021-07-11T07:02:58.000000Z
      handler_name    : Core Media Video
[Parsed_scale_0 @ 0x56289c3a2980] w:1280 h:720 flags:'bilinear' interl:0
[Parsed_scale_2 @ 0x56289c35cfc0] w:1280 h:720 flags:'bilinear' interl:0
Stream mapping:
  Stream #0:0 (h264) -> scale
  Stream #0:1 (aac) -> concat:in0:a0
  Stream #1:0 (aac) -> concat:in1:a0
  Stream #1:1 (h264) -> scale
  concat:out:v0 -> Stream #0:0 (libx264)
  concat:out:a0 -> Stream #0:1 (aac)
Press [q] to stop, [?] for help
[h264 @ 0x56289c352cc0] Reinit context to 432x240, pix_fmt: yuv420p
[h264 @ 0x56289c764ec0] Reinit context to 1280x720, pix_fmt: yuv420p
[Parsed_scale_0 @ 0x56289d10d440] w:1280 h:720 flags:'bilinear' interl:0
[Parsed_scale_2 @ 0x56289d115980] w:1280 h:720 flags:'bilinear' interl:0
[graph 0 input from stream 0:0 @ 0x56289d118b40] w:432 h:238 pixfmt:yuv420p tb:1/90000 fr:353/12 sar:0/1 sws_param:flags=2
[graph 0 input from stream 1:1 @ 0x56289d119bc0] w:1280 h:720 pixfmt:yuv420p tb:1/25000 fr:25/1 sar:1/1 sws_param:flags=2
[graph_0_in_0_1 @ 0x56289d11ab40] tb:1/48000 samplefmt:fltp samplerate:48000 chlayout:0x3
[graph_0_in_1_0 @ 0x56289d11bc80] tb:1/44100 samplefmt:fltp samplerate:44100 chlayout:0x3
[Parsed_concat_4 @ 0x56289d116b80] auto-inserting filter 'auto_resampler_0' between the filter 'graph_0_in_1_0' and the filter 'Parsed_concat_4'
[Parsed_scale_0 @ 0x56289d10d440] w:432 h:238 fmt:yuv420p sar:0/1 -> w:1280 h:720 fmt:yuv420p sar:0/1 flags:0x2
[Parsed_setsar_1 @ 0x56289d10d5c0] w:1280 h:720 sar:0/1 dar:16/9 -> sar:1/1 dar:16/9
[Parsed_scale_2 @ 0x56289d115980] w:1280 h:720 fmt:yuv420p sar:1/1 -> w:1280 h:720 fmt:yuv420p sar:1/1 flags:0x2
[Parsed_setsar_3 @ 0x56289d115ec0] w:1280 h:720 sar:1/1 dar:16/9 -> sar:1/1 dar:16/9
[auto_resampler_0 @ 0x56289d11f200] ch:2 chl:stereo fmt:fltp r:44100Hz -> ch:2 chl:stereo fmt:fltp r:48000Hz
[libx264 @ 0x56289c3a66c0] using SAR=1/1
[libx264 @ 0x56289c3a66c0] using cpu capabilities: MMX2 SSE2Fast SSSE3 SSE4.2 AVX FMA3 BMI2 AVX2
[libx264 @ 0x56289c3a66c0] profile High, level 3.1
[libx264 @ 0x56289c3a66c0] 264 - core 155 r2917 0a84d98 - H.264/MPEG-4 AVC codec - Copyleft 2003-2018 - http://www.videolan.org/x264.html - options: cabac=1 ref=1 deblock=1:0:0 analyse=0x3:0x113 me=hex subme=2 psy=1 psy_rd=1.00:0.00 mixed_ref=0 me_range=16 chroma_me=1 trellis=0 8x8dct=1 cqm=0 deadzone=21,11 fast_pskip=1 chroma_qp_offset=0 threads=22 lookahead_threads=5 sliced_threads=0 nr=0 decimate=1 interlaced=0 bluray_compat=0 constrained_intra=0 bframes=3 b_pyramid=2 b_adapt=1 b_bias=0 direct=1 weightb=1 open_gop=0 weightp=1 keyint=250 keyint_min=25 scenecut=40 intra_refresh=0 rc_lookahead=10 rc=crf mbtree=1 crf=18.0 qcomp=0.60 qpmin=0 qpmax=69 qpstep=4 ip_ratio=1.40 aq=1:1.00
Output #0, mp4, to '/var/www/html/project/media/video/watermarks/video_2022-03-25_11-36-57.mp4':
  Metadata:
    major_brand     : isom
    minor_version   : 512
    compatible_brands: isomiso2avc1mp41
    encoder         : Lavf58.29.100
    Stream #0:0: Video: h264 (libx264), 1 reference frame (avc1 / 0x31637661), yuv420p(progressive), 1280x720 [SAR 1:1 DAR 16:9], q=-1--1, 29.42 fps, 11296 tbn, 29.42 tbc (default)
    Metadata:
      encoder         : Lavc58.54.100 libx264
    Side data:
      cpb: bitrate max/min/avg: 0/0/0 buffer size: 0 vbv_delay: -1
    Stream #0:1: Audio: aac (LC) (mp4a / 0x6134706D), 48000 Hz, stereo, fltp, delay 1024, 128 kb/s (default)
    Metadata:
      encoder         : Lavc58.54.100 aac
[Parsed_concat_4 @ 0x56289d116b80] EOF on in0:v0, 1 streams left in segment.
[Parsed_concat_4 @ 0x56289d116b80] EOF on in0:a0, 0 streams left in segment.
[Parsed_concat_4 @ 0x56289d116b80] Segment finished at pts=44192627
[Parsed_concat_4 @ 0x56289d116b80] EOF on in1:v0, 1 streams left in segment.
[Parsed_concat_4 @ 0x56289d116b80] EOF on in1:a0, 0 streams left in segment.
[Parsed_concat_4 @ 0x56289d116b80] Segment finished at pts=46211314
No more output streams to write to, finishing.
frame= 1350 fps=290 q=-1.0 Lsize=   13085kB time=00:00:46.22 bitrate=2318.8kbits/s speed=9.93x    
[AVIOContext @ 0x56289c2fe180] Statistics: 0 seeks, 10 writeouts
video:12325kB audio:712kB subtitle:0kB other streams:0kB global headers:0kB muxing overhead: 0.374759%
Input file #0 (/var/www/html/project/media/video/original/video_2022-03-25_11-36-57.mp4):
  Input stream #0:0 (video): 1300 packets read (3277032 bytes); 1300 frames decoded; 
  Input stream #0:1 (audio): 2071 packets read (705234 bytes); 2071 frames decoded (2120704 samples); 
  Total: 3371 packets (3982266 bytes) demuxed
Input file #1 (/var/www/html/project/static/images/templates/Codino.mp4):
  Input stream #1:0 (audio): 89 packets read (26579 bytes); 87 frames decoded (89024 samples); 
  Input stream #1:1 (video): 50 packets read (203365 bytes); 50 frames decoded; 
  Total: 139 packets (229944 bytes) demuxed
Output file #0 (/var/www/html/project/media/video/watermarks/video_2022-03-25_11-36-57.mp4):
  Output stream #0:0 (video): 1350 frames encoded; 1350 packets muxed (12620502 bytes); 
  Output stream #0:1 (audio): 2167 frames encoded (2218143 samples); 2168 packets muxed (728876 bytes); 
  Total: 3518 packets (13349378 bytes) muxed
[AVIOContext @ 0x56289c37dbc0] Statistics: 2 seeks, 54 writeouts
[libx264 @ 0x56289c3a66c0] frame I:7     Avg QP:12.53  size: 68704
[libx264 @ 0x56289c3a66c0] frame P:410   Avg QP:16.63  size: 21509
[libx264 @ 0x56289c3a66c0] frame B:933   Avg QP:19.98  size:  3559
[libx264 @ 0x56289c3a66c0] consecutive B-frames:  5.5%  6.1%  3.1% 85.3%
[libx264 @ 0x56289c3a66c0] mb I  I16..4: 26.9% 20.2% 52.9%
[libx264 @ 0x56289c3a66c0] mb P  I16..4:  3.8%  4.6%  0.9%  P16..4: 31.5% 17.3% 12.0%  0.0%  0.0%    skip:29.9%
[libx264 @ 0x56289c3a66c0] mb B  I16..4:  0.3%  0.1%  0.0%  B16..8: 16.8%  3.7%  0.3%  direct:12.1%  skip:66.7%  L0:38.0% L1:44.9% BI:17.1%
[libx264 @ 0x56289c3a66c0] 8x8 transform intra:42.8% inter:52.4%
[libx264 @ 0x56289c3a66c0] coded y,uvDC,uvAC intra: 44.6% 53.3% 15.9% inter: 14.8% 11.2% 0.1%
[libx264 @ 0x56289c3a66c0] i16 v,h,dc,p: 30% 54%  8%  8%
[libx264 @ 0x56289c3a66c0] i8 v,h,dc,ddl,ddr,vr,hd,vl,hu: 10% 50% 17%  2%  5%  3%  7%  2%  4%
[libx264 @ 0x56289c3a66c0] i4 v,h,dc,ddl,ddr,vr,hd,vl,hu: 17% 33% 13%  4%  9%  5%  8%  5%  7%
[libx264 @ 0x56289c3a66c0] i8c dc,h,v,p: 45% 37% 10%  8%
[libx264 @ 0x56289c3a66c0] Weighted P-Frames: Y:1.7% UV:0.0%
[libx264 @ 0x56289c3a66c0] kb/s:2183.72
[aac @ 0x56289c3406c0] Qavg: 1713.106
[AVIOContext @ 0x56289c307080] Statistics: 4071603 bytes read, 2 seeks
[AVIOContext @ 0x56289c341a80] Statistics: 1530915 bytes read, 42 seeks
